<?xml version="1.0" encoding="iso-8859-1"?>
<!-- Generator: Adobe Illustrator 16.0.0, SVG Export Plug-In . SVG Version: 6.00 Build 0)  -->
<!DOCTYPE svg PUBLIC "-//W3C//DTD SVG 1.1//EN" "http://www.w3.org/Graphics/SVG/1.1/DTD/svg11.dtd">
<svg version="1.1" id="Capa_1" xmlns="http://www.w3.org/2000/svg" xmlns:xlink="http://www.w3.org/1999/xlink" x="0px" y="0px"
	 width="201.19px" height="201.19px" viewBox="0 0 201.19 201.19" style="enable-background:new 0 0 201.19 201.19;"
	 xml:space="preserve">
<g>
	<g>
		<path d="M195.604,176.567c-4.282-3.656-10.753-6.896-17.566-10.168l-0.08-0.037c-15.684-7.538-39.386-18.932-61.623-43.521
			C103.18,108.295,92.922,87.03,85.43,71.497l-0.206-0.426c-4.734-9.765-8.473-17.477-11.906-21.666
			C65.31,39.73,48.915,34.66,32.159,42.641c-4.957-10.456-2.042-13.737,4.132-19.504c3.502-3.271,1.942-6.087-0.19-9.69
			c-0.802-1.355-2.896-4.762-5.017-7.132c-3.77-4.212-7.139-2.569-8.407-1.555c-1.519,1.215-5.742,5.228-6.301,5.831
			c-5.646,6.087-8.393,12.351-8.563,21.17c-0.15,7.75,1.971,15.987,6.016,23.622C8.902,60.092,3.213,67.126,0.633,79.661
			c-3.561,17.365,8.575,36.512,19.383,49.517c13.526,16.275,32.582,32.068,52.282,43.33c24.83,14.195,54.898,20.218,70.612,22.545
			c11.497,1.703,22.675,2.561,32.009,2.561c8.502,0,15.475-0.711,19.764-2.145c2.911-0.972,4.709-2.331,5.495-4.155
			C202.443,186.054,200.904,181.092,195.604,176.567z M192.692,189.062c-4.762,1.863-19.72,3.017-43.161,0.083
			c-16.509-2.065-48.061-7.734-73.883-22.497c-19.026-10.876-37.411-26.105-50.44-41.784C11.267,108.089,4.888,92.517,7.246,81.02
			c2.022-9.824,6.098-15.559,10.171-19.697c4.429,6.727,9.997,14.54,11.153,16.156c0.659,0.921,1.696,1.412,2.748,1.412
			c0.68,0,1.366-0.205,1.961-0.63c1.516-1.084,1.866-3.192,0.782-4.708c-1.248-1.745-7.699-10.798-12.168-17.724
			c-4.878-7.601-7.481-16.101-7.33-23.936c0.134-6.928,3.464-12.883,7.097-17.105c3.696-4.295,6.246-1.808,7.391-0.056
			c1.199,1.835,2.778,3.286,0.302,5.832c-3.55,3.649-5.71,6.565-6.384,10.846c-0.767,4.871,0.893,10.444,5.73,19.237
			c0.023,0.041,0.046,0.082,0.07,0.122c2.978,4.918,10.853,15.991,12.402,18.161c1.083,1.517,3.19,1.869,4.708,0.787
			c1.517-1.083,1.869-3.191,0.787-4.708c-0.857-1.201-7.897-11.084-11.301-16.42c13.533-6.291,26.504-2.43,32.744,5.109
			c2.918,3.559,6.503,10.955,11.043,20.319l0.203,0.42c7.667,15.896,18.168,37.667,31.974,52.934
			c23.127,25.573,47.548,37.31,63.706,45.077l0.081,0.039c6.143,2.948,12.444,6.09,16.106,9.216
			C194.903,184.844,195.512,187.96,192.692,189.062z"/>
		<path d="M59.717,52.215c-3.286-1.845-7.37-1.789-11.206,0.153c-1.663,0.842-2.328,2.873-1.486,4.536
			c0.842,1.663,2.872,2.327,4.536,1.486c1.793-0.908,3.561-1.014,4.851-0.289c1.139,0.64,1.835,1.858,1.959,3.431
			c0.279,3.53-5.244,10.38-7.595,12.644c-1.881,1.813-3.68,3.29-5.224,4.285c-7.512,4.916-21.087,11.018-25.545,6.455
			c-0.201-0.205-0.407-0.511-0.402-1.234c0.012-1.864-1.49-3.384-3.354-3.396c-0.007,0-0.014,0-0.022,0
			c-1.854,0-3.363,1.497-3.375,3.354c-0.015,2.362,0.795,4.441,2.333,6.003c2.571,2.633,5.949,3.628,9.59,3.628
			c9.815,0,21.532-7.238,24.45-9.147c1.886-1.215,4.042-2.974,6.232-5.085c0.103-0.099,10.276-9.993,9.641-18.036
			C64.798,57.169,62.836,53.966,59.717,52.215z"/>
	</g>
</g>
<g>
</g>
<g>
</g>
<g>
</g>
<g>
</g>
<g>
</g>
<g>
</g>
<g>
</g>
<g>
</g>
<g>
</g>
<g>
</g>
<g>
</g>
<g>
</g>
<g>
</g>
<g>
</g>
<g>
</g>
</svg>
